# xmcd
#
# Track frame offsets: 
#        150
#        21722
#        45622
#        62912
#        85757
#        103697
#        126207
#        152097
#
# Disc length: 2325 seconds
#
# Revision: 2
# Processed by: cddbd v1.5.2PL0 Copyright (c) Steve Scherf et al.
# Submitted via: ExactAudioCopy v1.0b3
#
DISCID=69091308
DTITLE=Ray, Goodman and Brown - Take It To The Limit
DYEAR=1986
DGENRE=R&B
TTITLE0=Take It To The Limit
TTITLE1=(Baby) Let's Make Love Tonight
TTITLE2=Good Love
TTITLE3=Celebrate Our Love
TTITLE4=Why Must I Wait
TTITLE5=Waiting For Dawn
TTITLE6=We've Got Tonight
TTITLE7=Someone's Missing Your Love
EXTD=
EXTT0=
EXTT1=
EXTT2=
EXTT3=
EXTT4=
EXTT5=
EXTT6=
EXTT7=
PLAYORDER=
